<svg width="120" height="34" viewBox="0 0 120 34" fill="none" xmlns="http://www.w3.org/2000/svg">
<path d="M119.97 12.1267C120.145 12.7321 119.498 13.4613 119.333 14.1173C119.584 14.6745 119.395 14.9601 118.971 15.6271C117.851 17.3917 117.386 19.6905 115.844 21.6839C115.904 20.4625 116.639 19.1814 117.442 18.093C116.076 19.0259 115.35 20.7679 115.593 22.0119C115.788 22.0712 115.643 21.7856 115.844 21.6839C116.005 21.7321 115.839 22.0996 116.076 21.8424C116.17 21.9638 115.871 22.2181 115.782 22.2267C115.607 22.914 116.016 23.4172 116.277 23.9995C116.319 24.0872 116.147 24.1749 116.168 24.2596C116.281 24.6921 116.965 25.1391 117.611 25.5971C117.919 25.5094 118.272 25.6987 118.61 25.7868C117.65 26.2502 116.698 26.7621 115.569 26.1934C115.347 26.1148 115.625 25.9588 115.566 25.8543C114.577 25.2744 114.55 24.551 113.972 23.909C114.173 23.7251 113.847 23.4963 114.149 23.4452C113.933 22.5547 114.04 21.616 113.951 20.7057C114.499 19.9419 114.52 19.2609 114.817 18.5341C114.876 18.3419 114.603 18.5086 114.627 18.3218C115.394 16.521 115.8 14.8498 116.541 12.9329C116.073 12.9329 115.794 13.207 115.38 13.3033C115.314 13.3173 115.104 13.1732 115.006 13.2127C114.259 13.5094 113.853 14.5642 113.083 14.8131C113.24 14.3238 113.862 13.9959 114.185 13.4815C113.492 13.5889 112.952 14.6461 112.304 15.0251C112.694 14.0469 113.702 13.2917 114.455 12.3247C114.265 12.2115 114.126 12.3926 113.972 12.4917C114.073 11.9654 114.659 11.7169 114.95 11.3267C113.634 11.9148 112.801 13.4699 111.477 14.9572C111.693 14.9374 111.844 14.516 112.037 14.3378C112.292 15.1691 110.629 16.0288 110.623 16.8827C110.976 16.744 110.996 16.0119 111.465 16.1251C111.174 16.4588 111.044 16.5691 110.937 16.9308C110.131 17.0638 110.288 18.1946 109.811 18.7518C109.876 18.9045 109.785 19.0798 109.891 19.2267C108.596 21.3333 107.734 23.6292 105.861 25.6592C105.754 25.5629 105.962 25.4189 105.855 25.3197C105.461 25.0938 105.221 25.7979 104.865 25.809C104.619 25.6539 104.782 25.4329 104.773 25.2411C103.605 25.3144 103.259 24.0222 103.137 23.3493C103.38 23.0662 103.493 22.651 103.52 22.272C106.306 18.944 107.591 15.6839 109.278 12.421C109.055 12.5226 108.789 12.3473 108.567 12.4296C109.02 11.9798 109.42 11.9094 109.731 11.4765C110.285 10.7189 110.137 9.41274 111.157 8.68887C111.604 8.94319 112.025 9.0506 112.62 9.5399C112.677 9.96665 112.665 10.4049 112.582 10.8547C112.709 10.9082 112.873 11.1712 112.952 10.9448C113.014 11.0666 112.949 11.2053 112.816 11.3551C112.988 11.3576 113.107 11.0411 113.266 10.9959C113.506 11.058 113.175 11.2053 113.415 11.2646C113.61 11.2276 113.8 11.1317 113.978 10.9872C114.17 11.2193 114.298 11.0724 114.464 11.1572C114.964 10.5889 115.738 10.1025 116.583 10.1078C116.769 9.90739 116.704 9.68105 116.977 9.70945C117.211 9.78846 117.107 9.9185 116.98 10.0485C117.279 10.0909 117.338 9.90739 117.374 9.65019C117.863 10.1646 118.269 9.92138 118.574 10.1506C118.779 10.207 118.604 9.9469 118.8 9.96953C118.944 10.2889 119.102 10.6057 119.611 10.8687C119.336 11.1683 119.674 11.3778 119.339 11.6885C119.454 11.7679 119.567 11.8469 119.682 11.9263C119.593 12.1354 119.555 12.3333 119.579 12.5255C119.739 12.5736 119.837 12.2345 119.97 12.1267Z" fill="white"/>
<path d="M118.93 16.41C118.994 16.536 118.924 16.6794 118.789 16.8344C118.531 16.7378 118.875 16.5535 118.93 16.41Z" fill="white"/>
<path d="M117.254 18.1333C116.424 19.1804 115.663 20.4128 115.602 21.5878C115.394 21.6856 115.544 21.9604 115.342 21.9033C115.09 20.7066 115.841 19.0308 117.254 18.1333Z" fill="white"/>
<path fill-rule="evenodd" clip-rule="evenodd" d="M106.663 12.1459C106.699 12.5023 106.416 12.891 106.125 13.291C105.816 13.716 105.497 14.1538 105.541 14.5794C105.665 14.6763 105.753 14.5558 105.842 14.4352C105.905 14.3494 105.968 14.2635 106.043 14.2564C105.897 14.4615 105.774 14.7142 105.648 14.9718C105.419 15.4395 105.183 15.9231 104.788 16.1663C104.209 17.5963 103.389 19.0089 102.084 20.3644C102.019 20.4696 102.063 20.5582 102.107 20.6466C102.138 20.7097 102.169 20.7728 102.161 20.8417C102 21.1709 101.805 21.2955 101.61 21.4203C101.439 21.53 101.267 21.6398 101.117 21.8885C100.993 21.785 101.069 21.7323 101.143 21.6807C101.204 21.6383 101.264 21.5966 101.211 21.528C100.874 21.8122 100.561 22.2555 100.248 22.6993L100.248 22.6993C100.053 22.9743 99.8593 23.2496 99.659 23.487C99.8402 23.4504 100.003 23.2976 100.166 23.1447C100.384 22.9401 100.602 22.7355 100.864 22.8091C100.634 23.3339 100.031 23.791 99.4416 24.2384L99.4416 24.2384C99.1152 24.4861 98.7927 24.7308 98.5392 24.9824C98.4865 25.2687 98.3539 25.5459 98.0573 25.7461C97.8988 25.5717 98.0042 25.3599 98.1602 25.1397C97.8873 25.3755 97.5998 25.5154 97.3121 25.6553C97.0698 25.7731 96.8272 25.8911 96.5933 26.0666C96.5403 26.0176 96.5655 25.9567 96.5906 25.8959C96.6156 25.8352 96.6406 25.7746 96.5877 25.7261C95.7868 26.1335 94.8905 25.8276 94.0454 25.5392C93.8233 25.4634 93.6047 25.3888 93.3924 25.3287C92.12 23.1953 92.1757 20.3473 94.3303 18.0138C94.7391 16.4668 95.8351 14.8711 97.1139 13.3641C97.5098 12.8972 97.8699 12.3759 98.2267 11.8595C99.0671 10.6431 99.8886 9.45397 101.114 9.06656C102.102 9.78407 102.869 10.5332 102.857 11.4026C101.206 12.5779 99.8558 14.0046 98.3777 15.8721C98.7156 16.0781 99.3416 15.3859 99.7181 14.7825C99.7605 15.1384 99.3956 15.4694 99.0144 15.8152C98.5777 16.2113 98.1195 16.627 98.2277 17.1219C97.7463 17.5414 97.5375 17.8526 97.1865 18.3756C97.1431 18.4403 97.0975 18.5083 97.0488 18.5802C97.1264 18.6347 97.1803 18.5424 97.2343 18.4499C97.2989 18.3392 97.3638 18.2282 97.4696 18.3683C97.1607 18.9937 96.7883 19.4764 96.4168 19.9577C96.0563 20.4249 95.6967 20.8909 95.397 21.4852C95.5667 21.4284 95.7091 21.2134 95.8516 20.9983C95.9389 20.8664 96.0262 20.7346 96.1199 20.6391C96.0953 21.0194 95.8937 21.4268 95.6919 21.8345C95.5342 22.153 95.3765 22.4717 95.303 22.7778C95.5367 22.6565 95.7604 22.5489 95.9826 22.4419C96.3107 22.284 96.6356 22.1276 96.9843 21.9313C97.4418 21.6736 97.8127 21.3083 98.194 20.9328C98.4938 20.6376 98.8 20.3361 99.1597 20.0755C99.3403 19.9436 99.5523 19.8356 99.7701 19.7247C100.264 19.4729 100.788 19.206 101.044 18.6085C101.138 18.5228 101.24 18.4871 101.342 18.4514C101.43 18.4204 101.519 18.3894 101.602 18.3255C103.169 16.5754 104.562 14.6539 105.288 12.7007C105.506 12.6482 105.616 12.5312 105.776 12.3603L105.776 12.3603C105.878 12.2523 106 12.1228 106.182 11.9745C106.089 11.8743 106.022 11.9294 105.955 11.9845C105.888 12.0395 105.821 12.0945 105.729 11.9944C105.782 11.7536 105.985 11.6089 106.188 11.464C106.287 11.3938 106.385 11.3236 106.467 11.2424C106.682 11.3423 106.511 11.6239 106.332 11.9209C106.187 12.1598 106.037 12.4087 106.076 12.5808C106.205 12.6383 106.303 12.504 106.4 12.3699C106.482 12.2573 106.563 12.1448 106.663 12.1459ZM104.736 15.5375C105.062 15.2229 105.361 14.4908 105.309 14.0734C105.246 14.2261 105.17 14.3808 105.094 14.5355C104.927 14.8762 104.76 15.217 104.736 15.5375ZM103.214 16.9898C103.109 17.1064 103.004 17.2228 102.957 17.3303C102.948 17.1557 103.073 16.9607 103.198 16.7655C103.282 16.6344 103.366 16.5033 103.41 16.3781C103.617 16.54 103.415 16.7651 103.214 16.9898Z" fill="white"/>
<path d="M105.718 17.0166C105.771 17.3324 105.55 17.6044 105.258 17.7389C105.213 17.5282 105.599 17.2533 105.718 17.0166Z" fill="white"/>
<path d="M101.795 21.5333C101.866 21.878 101.467 21.9475 101.393 22.2888C101.157 22.092 101.7 21.7794 101.795 21.5333Z" fill="white"/>
<path d="M101.249 22.1517C101.504 22.2364 101.142 22.6106 101.016 22.3386C101.089 22.2509 101.151 22.1019 101.249 22.1517Z" fill="white"/>
<path d="M94.954 4.1554C95.906 4.17571 96.7974 5.43793 96.8628 6.22016C96.2326 6.67095 95.5555 6.87455 95.354 7.93317C94.8051 6.74629 94.8784 5.45233 94.954 4.1554Z" fill="white"/>
<path fill-rule="evenodd" clip-rule="evenodd" d="M90.903 13.7615C90.9097 13.4932 90.9165 13.2249 90.7485 12.984C90.1305 12.4263 89.6945 12.0353 88.9305 11.7112C88.4269 11.8098 88.3557 12.1644 88.2816 12.5336C88.254 12.6708 88.2261 12.81 88.1754 12.9389C87.9845 13.4188 87.6768 13.8402 87.3621 14.2711C87.1598 14.5483 86.9545 14.8294 86.7756 15.1325C86.7213 15.2242 86.6987 15.3273 86.6756 15.4325C86.6526 15.5371 86.6292 15.6438 86.5737 15.7435C86.38 16.0851 86.14 16.4155 85.8921 16.7567C85.6416 17.1015 85.3832 17.4572 85.1566 17.8465C84.8563 18.5492 84.4997 19.2606 84.1431 19.972C83.6167 21.0222 83.0902 22.0725 82.7448 23.0947C82.869 23.3094 82.9659 23.5274 83.0627 23.7453C83.2008 24.0559 83.3386 24.3662 83.5553 24.6658C83.6471 24.6364 83.7343 24.58 83.8212 24.5238C83.9921 24.4133 84.1624 24.3032 84.3663 24.3982C84.52 24.4694 84.5089 24.5654 84.4977 24.6611C84.486 24.762 84.4742 24.8625 84.6558 24.9334C84.8707 24.6183 85.1578 24.7262 85.4443 24.8339C85.4626 24.8407 85.4808 24.8476 85.499 24.8543C86.5005 22.194 88.6198 19.1304 90.409 16.7598C90.2902 16.4262 90.5348 16.0376 90.7801 15.6477C90.8494 15.5375 90.9188 15.4273 90.98 15.3181C90.8789 15.1842 90.8025 15.2011 90.7263 15.2179C90.6568 15.2333 90.5875 15.2486 90.4996 15.1493C90.7129 15.0694 90.8282 14.7781 90.9189 14.5488C90.9403 14.4946 90.9604 14.4439 90.98 14.4002C90.892 14.1971 90.8975 13.9793 90.903 13.7615ZM86.6152 21.8728C86.3956 22.1474 86.176 22.422 86.0002 22.7005C86.1929 21.8554 86.8335 21.0687 87.4246 20.3429C87.4813 20.2732 87.5376 20.2041 87.593 20.1356C87.522 20.7387 87.0684 21.306 86.6152 21.8728Z" fill="white"/>
<path fill-rule="evenodd" clip-rule="evenodd" d="M90.9803 7.85769C90.8483 7.91667 90.7931 8.02898 90.7391 8.13869C90.6796 8.25968 90.6216 8.37752 90.4639 8.41723C90.4085 8.28433 90.395 8.14532 90.3816 8.00636C90.352 7.70152 90.3225 7.39689 89.8503 7.15735C88.7056 7.15912 87.7015 8.00874 86.6789 8.87392C86.0524 9.404 85.419 9.93992 84.7422 10.2903C84.5386 10.3959 84.3136 10.476 84.0789 10.5597C83.4191 10.7947 82.6832 11.0569 82.135 11.9865C82.3357 11.9156 82.5013 11.7462 82.6692 11.5744C82.9084 11.3297 83.1524 11.0801 83.5094 11.1032C82.5772 12.5092 81.3031 13.9774 80.0558 15.0519C80.2387 14.5931 80.554 14.2124 80.8826 13.8156C81.1686 13.4703 81.4646 13.1128 81.6924 12.6811C80.4182 13.8677 79.1799 15.2598 77.9885 16.9585C78.2052 16.8302 78.4076 16.6258 78.61 16.4214L78.6101 16.4213C78.6828 16.3479 78.7556 16.2744 78.829 16.2045C78.8131 16.6331 78.5032 17.1077 78.1932 17.5826C77.9783 17.912 77.7632 18.2414 77.6461 18.5556C77.8518 18.5653 78.0152 18.3252 78.1789 18.0846C78.2591 17.9667 78.3393 17.8487 78.4247 17.7599C78.3863 17.9654 78.2477 18.4631 78.0264 18.4013C77.6678 19.1166 77.5727 19.7929 77.4777 20.4693C77.4109 20.9445 77.3441 21.4197 77.1859 21.9084C77.2891 21.9276 77.3804 21.8662 77.4661 21.7704C77.5247 22.0624 77.3127 22.3148 77.0878 22.5827C76.9052 22.8001 76.7141 23.0276 76.6521 23.2947C76.636 23.4211 76.6224 23.5536 76.6083 23.6898C76.509 24.6545 76.3904 25.805 75.2687 26.2562C74.9297 26.1465 74.6142 26.1776 74.337 26.4444C74.1157 26.2422 73.9328 26.2451 73.7677 26.3826C73.2945 26.1627 73.1512 25.8922 73.0078 25.6218C72.8983 25.4151 72.7888 25.2084 72.5319 25.0245C72.5465 24.8365 72.5228 24.6546 72.4991 24.473C72.465 24.2119 72.4311 23.9514 72.5111 23.6742C71.5026 23.4662 70.7444 22.7381 70.2224 22.0852C70.2555 22.0346 70.2933 22.0172 70.3314 21.9998C70.3715 21.9815 70.4117 21.963 70.4467 21.9055C70.1815 21.6419 70.0839 21.353 69.9863 21.064C69.9027 20.8163 69.819 20.5685 69.6297 20.3362C69.7225 19.7593 69.6655 19.2036 69.6086 18.648C69.5875 18.4424 69.5664 18.2367 69.553 18.0301C69.5886 17.9283 69.5659 17.9448 69.5228 17.9763C69.4695 18.0153 69.3847 18.0773 69.3406 17.9654C69.3378 17.9376 69.3333 17.9099 69.3289 17.8823C69.3054 17.7368 69.2819 17.5907 69.5001 17.4087C69.2992 17.5012 69.2609 17.3805 69.2139 17.2119C68.8037 17.6824 68.5834 18.1246 68.3631 18.5669C68.1241 19.0469 67.8849 19.527 67.4029 20.0435C67.3802 20.0854 67.4154 20.1188 67.4505 20.1523C67.4886 20.1885 67.5267 20.2247 67.4912 20.2715C66.3292 22.3836 64.6128 23.8686 62.8547 24.7347C62.7634 24.7242 62.797 24.7099 62.8723 24.6778C62.9792 24.6323 63.1698 24.5511 63.2061 24.3946C63.0475 24.2772 62.8221 24.2525 62.6021 24.2284C62.2736 24.1925 61.9571 24.1579 61.8935 23.8178C61.7828 23.7361 61.6878 23.7556 61.5927 23.7752C61.5079 23.7926 61.4231 23.81 61.3272 23.7556C61.2244 23.5423 61.0993 23.3324 60.9743 23.1226C60.7122 22.6826 60.4501 22.2427 60.3921 21.7704C60.5072 20.7242 60.6283 19.6751 60.7844 18.6203C61.3254 17.8331 61.7173 17.0028 62.1147 16.1607C62.5905 15.1526 63.0743 14.1277 63.8312 13.1395C63.994 12.9269 64.1577 12.6794 64.3281 12.422C64.5928 12.022 64.8733 11.598 65.1906 11.2436L65.3239 11.0947C66.2577 10.0511 67.3889 8.78694 68.6327 8.45693C68.8094 8.58124 68.9906 8.70476 69.1716 8.82822C69.8424 9.28572 70.5119 9.74231 70.9508 10.2342C71.0719 10.3942 71.0599 10.5715 70.9892 10.7602C71.0821 10.7667 71.1603 10.6854 71.2384 10.6041C71.3615 10.4761 71.4844 10.3483 71.6646 10.5633C71.6812 10.5179 71.728 10.4683 71.7748 10.4188C71.8701 10.3179 71.9647 10.2177 71.8002 10.1556C71.85 10.0637 71.9216 10.1012 71.9929 10.1385C72.0699 10.1789 72.1466 10.2191 72.1955 10.0963C72.3251 10.2989 72.4583 10.3519 72.5983 10.4076C72.7072 10.451 72.8202 10.4959 72.9388 10.614C73.3335 11.0039 73.3224 11.4324 73.3107 11.8804C73.3032 12.169 73.2955 12.4657 73.3959 12.7654C73.1631 13.0438 73.0569 13.2996 73.0684 13.5415C73.1976 13.5905 73.2227 13.4792 73.2456 13.3778C73.2661 13.2869 73.2849 13.2039 73.3754 13.2517C73.5196 13.5006 73.4369 13.784 73.3542 14.0673C73.2696 14.357 73.185 14.6467 73.343 14.8996C73.288 14.9739 73.2596 15.0439 73.2314 15.1138C73.19 15.216 73.1489 15.3177 73.0245 15.4313C72.9967 15.4944 73.0663 15.5415 73.137 15.5892L73.137 15.5892C73.164 15.6074 73.1911 15.6257 73.2129 15.645C72.9367 16.0368 72.8443 16.401 72.7517 16.7657C72.6615 17.121 72.5712 17.4767 72.3106 17.8586C72.5229 17.9206 72.5701 17.7531 72.6233 17.5648C72.6616 17.4289 72.703 17.2822 72.8117 17.2033C72.7757 17.7552 72.6256 18.3242 72.4755 18.8933C72.2455 19.7655 72.0154 20.638 72.1955 21.4499C72.5584 21.7029 72.9183 21.9534 73.2812 22.2035C73.682 22.1331 73.8854 21.416 73.9596 21.0897C74.674 19.3684 75.7333 17.656 76.798 15.9349C77.8033 14.3098 78.8134 12.677 79.5424 11.0217C79.3988 11.0615 79.256 11.1067 79.1132 11.152C78.3263 11.4014 77.5376 11.6514 76.5992 10.9824C76.5751 10.7861 76.4137 10.6097 76.2524 10.4334C76.076 10.2407 75.8997 10.048 75.9028 9.82938C76.0897 9.73365 76.2764 9.63727 76.4632 9.54088L76.4635 9.54076C78.2524 8.61754 80.043 7.69343 81.9256 7.33172C82.2339 6.77377 82.5442 6.20787 82.8563 5.63858L82.8566 5.63797C83.8973 3.74003 84.9586 1.80438 86.0338 0C87.2833 0.769819 86.8729 1.78796 86.4623 2.80664C86.2233 3.39934 85.9844 3.99222 86.0722 4.53648C85.6404 4.96178 85.6638 5.31889 85.6873 5.67667C85.6931 5.76583 85.699 5.85504 85.6978 5.94535C85.7598 5.97609 85.8168 5.97463 85.8738 5.97316C85.9687 5.97073 86.0636 5.96829 86.1814 6.11399C86.3082 5.99889 86.4524 6.03017 86.6141 6.06524C86.7008 6.08405 86.7925 6.10394 86.8892 6.10294C86.9288 6.10294 86.973 6.07076 87.0187 6.03748C87.0687 6.00115 87.1204 5.96351 87.1698 5.965C87.2099 5.96645 87.2485 6.00662 87.2868 6.0464C87.3243 6.0854 87.3614 6.12404 87.3992 6.12545C87.5521 6.12851 87.7258 6.12439 87.9112 6.11998C88.5707 6.10433 89.3786 6.08515 89.9241 6.37268C90.5671 6.71283 90.9535 7.3092 90.9803 7.85769ZM79.2153 13.6345C79.4483 13.2582 79.768 12.9794 80.0572 12.7272C80.438 12.395 80.7658 12.1092 80.7726 11.7078C80.6237 11.8846 80.4505 12.0612 80.2729 12.2421C79.86 12.6629 79.4237 13.1076 79.2153 13.6345ZM72.2621 18.2221C72.3229 18.3203 72.3832 18.4177 72.3227 18.5335C72.2635 18.4909 72.2076 18.452 72.1483 18.4123C72.2513 18.3492 72.2134 18.3071 72.1752 18.2646C72.1369 18.222 72.0982 18.1791 72.2016 18.1143C72.2181 18.151 72.2401 18.1866 72.2621 18.2221L72.2621 18.2221ZM70.7798 11.0328C70.6138 11.0907 70.4452 11.1328 70.2766 11.175C69.7321 11.3111 69.1874 11.4473 68.73 12.113C68.2818 12.2534 67.8661 12.6893 67.7394 13.1817C66.7636 13.8412 66.1924 14.6868 65.598 15.5668C65.328 15.9665 65.0532 16.3734 64.7335 16.7731C64.7842 16.7483 64.8305 16.7021 64.8768 16.6561C64.9466 16.5866 65.016 16.5174 65.0994 16.5226C65.0065 16.9925 64.657 17.4271 64.3109 17.8574C63.9758 18.2742 63.6438 18.687 63.5511 19.1242C63.5037 19.1803 63.4743 19.2814 63.5686 19.2167C63.6807 18.9523 63.728 18.913 63.9728 18.9159C63.9823 19.1083 63.8513 19.3211 63.7202 19.5341C63.5678 19.7818 63.4152 20.0298 63.4833 20.2461C66.3531 18.0133 69.0694 14.2418 70.7798 11.0328ZM64.4512 17.2545C64.366 17.3078 64.2814 17.3606 64.2354 17.4255C64.1821 17.1865 64.5594 16.9585 64.707 16.9217C64.7404 17.0737 64.5949 17.1647 64.4512 17.2545Z" fill="white"/>
<path d="M80.0004 15.8667C79.6418 16.4965 79.4168 17.1003 78.8728 17.7556C78.8543 17.65 78.8394 17.5412 78.824 17.4361C79.1918 16.9821 79.7477 15.9402 80.0004 15.8667Z" fill="white"/>
<path fill-rule="evenodd" clip-rule="evenodd" d="M65.5043 7.83365C65.7368 7.69935 65.8621 7.34731 65.8823 7.10394C65.5322 6.78593 65.2106 6.80557 64.8556 6.82724C64.6767 6.83816 64.4894 6.84959 64.2857 6.81865C63.6575 6.72097 62.6282 7.0258 62.116 7.29115C61.9765 7.3855 61.9936 7.45609 62.0106 7.52635C62.0234 7.57914 62.0361 7.63173 61.9823 7.69405C60.9872 8.04924 60.0327 8.65616 59.0783 9.26304C58.0414 9.92245 57.0044 10.5818 55.9155 10.9181C55.596 11.3011 55.2528 11.5583 54.8921 11.6983C54.8388 11.405 54.6061 11.3226 54.3436 11.2296C54.1458 11.1596 53.931 11.0836 53.7635 10.9067C53.6141 11.0699 53.4377 11.064 53.261 11.058C53.0866 11.0522 52.9119 11.0463 52.7631 11.2034C52.9608 11.6059 53.0915 12.0198 53.0188 12.4614C52.4714 13.584 52.0885 14.7857 51.7052 15.9888C51.3028 17.2521 50.8998 18.5168 50.3054 19.693C50.1761 19.9495 50.0827 20.2253 49.9902 20.4985L49.9902 20.4985C49.9245 20.6924 49.8592 20.8851 49.7819 21.0686C49.7463 21.1541 49.6766 21.2274 49.6091 21.2983C49.5445 21.3663 49.4819 21.4321 49.4535 21.5044C49.3582 21.7453 49.4441 21.9512 49.5318 22.1613C49.6286 22.3932 49.7275 22.6303 49.5872 22.9252C49.7583 23.0927 49.8627 23.2701 49.9671 23.4473C50.0615 23.6077 50.1559 23.7679 50.2995 23.9207C50.384 24.0338 50.4465 24.0093 50.5091 23.9848C50.5716 23.9604 50.6342 23.9359 50.7187 24.0493C50.7389 24.1105 50.7439 24.174 50.749 24.2374C50.7541 24.3014 50.7592 24.3653 50.7797 24.4269C51.0556 24.5146 51.2795 24.2837 51.5034 24.0529C51.5935 23.96 51.6836 23.8671 51.7771 23.7949C51.8014 23.87 51.8039 23.9485 51.8064 24.0268C51.8125 24.2197 51.8187 24.4123 52.1497 24.5555C52.5857 23.6244 52.9986 22.6961 53.2984 21.7873C53.3742 21.7268 53.2992 21.6898 53.2248 21.653C53.1509 21.6164 53.0775 21.5801 53.1529 21.5215C53.2801 21.226 53.419 20.9288 53.5579 20.6318L53.5579 20.6318C53.9432 19.8077 54.3281 18.9846 54.4585 18.1994C54.4073 18.2671 54.3652 18.3517 54.323 18.4363C54.224 18.635 54.1252 18.8336 53.909 18.8119C54.0493 18.4846 54.2936 18.1483 54.5266 17.8276C54.8151 17.4305 55.0863 17.0571 55.1217 16.7538C55.005 16.8591 54.9092 17.0207 54.8247 17.1631C54.7365 17.3118 54.6607 17.4397 54.5864 17.4611C54.2274 17.0314 54.7314 16.3344 55.1309 15.7819C55.2747 15.583 55.405 15.4028 55.4765 15.2606C55.4885 15.4018 55.4102 15.5575 55.332 15.7132C55.297 15.7828 55.2621 15.8524 55.2352 15.9207C55.5552 15.8869 55.5812 16.055 55.5463 16.3065C56.2465 15.2686 57.1165 14.295 57.9596 13.3517L57.9596 13.3517L57.9596 13.3517C58.7449 12.473 59.5068 11.6205 60.0859 10.7667C60.255 10.6261 60.4709 10.4924 60.6936 10.3546C61.1875 10.0488 61.7145 9.72259 61.8368 9.25441C61.5799 9.43738 61.3241 9.62726 61.0682 9.81718C60.3741 10.3323 59.6798 10.8476 58.9636 11.2258C59.4774 10.6306 60.0299 10.2789 60.5826 9.92711C61.0246 9.64575 61.4667 9.3643 61.8894 8.95813C61.9547 9.05574 61.999 9.01942 62.0433 8.98307C62.0876 8.94667 62.132 8.91025 62.1976 9.00818C62.1902 9.01767 62.1794 9.0311 62.1665 9.04718L62.1665 9.04719L62.1665 9.0472C62.0724 9.16429 61.8654 9.42176 62.0492 9.31871C62.1587 9.21729 62.1896 9.12807 62.2205 9.03893L62.2205 9.03892L62.2205 9.03891C62.2364 8.99285 62.2524 8.94681 62.2792 8.89911C62.5814 8.76625 62.8749 8.57831 63.1685 8.39028C63.9001 7.92173 64.6326 7.45261 65.5043 7.83365ZM59.3476 9.35778C59.4492 9.24332 59.5503 9.12925 59.6879 9.24314C59.6238 9.27199 59.5649 9.33138 59.5059 9.39079C59.3935 9.50398 59.2811 9.61729 59.1325 9.51988C59.2117 9.51107 59.2797 9.43434 59.3476 9.35778ZM58.4873 11.0577C58.5396 10.9733 58.6053 10.9189 58.6619 10.872C58.759 10.7916 58.8291 10.7336 58.7576 10.5852C58.7337 10.6429 58.6761 10.7056 58.6186 10.7684C58.5228 10.8729 58.4271 10.9773 58.4873 11.0577ZM57.2795 12.2895C57.057 12.5061 56.8245 12.7322 56.6568 13.0153C56.7207 12.7496 57.4974 11.6674 57.9044 11.4827C57.7925 11.7904 57.5429 12.0332 57.2795 12.2895Z" fill="white"/>
<path d="M63.9212 8.68887C63.5744 9.5344 62.4334 9.69175 61.8009 10.4764C61.6075 10.7175 61.3319 11.2111 60.9673 11.409C60.9019 11.4437 60.7056 11.3595 60.6258 11.415C60.3814 11.5803 60.0765 12.0164 59.735 12.307C59.3338 12.65 58.8273 12.7867 58.847 13.1991C58.5343 13.1876 58.3121 13.7455 58.0389 13.9778C59.0634 11.6501 61.1467 10.7259 62.709 9.08097C63.0222 9.31953 63.5172 8.82253 63.9212 8.68887Z" fill="white"/>
<path d="M60.7602 12.0889C60.4072 12.3727 60.4383 12.7208 60.0241 12.8444C60.1682 12.6062 60.2449 12.1049 60.7602 12.0889Z" fill="white"/>
<path d="M59.0173 13.2755C59.0235 13.4743 58.8918 13.6965 58.7047 13.9246C58.4932 13.6058 58.7752 13.4594 59.0173 13.2755Z" fill="white"/>
<path d="M58.254 13.6828C58.2877 13.902 58.1342 14.3817 57.8212 14.2502C57.7937 14.0046 58.1067 13.8582 58.254 13.6828Z" fill="white"/>
<path d="M57.3132 14.5741C57.5708 14.6703 57.2334 14.8929 57.1567 14.9014C57.0188 14.8461 57.1629 14.5068 57.3132 14.5741Z" fill="white"/>
<path d="M51.7317 10.6623C51.8855 10.7868 51.9829 10.5551 52.1572 10.7921C51.2768 12.4005 50.2366 15.7028 48.1301 16.5378C47.9939 16.6873 48.1301 16.7949 47.9939 16.9473C47.474 17.2775 46.9541 17.6102 46.4517 18.0505C45.0159 18.0139 44.7678 20.2401 43.8578 21.1067C43.6272 20.4294 44.1295 19.6421 44.3068 18.9056C43.0569 20.0963 43.1662 21.5018 43.3969 22.6309C44.2889 22.9891 45.4414 22.3767 46.4487 21.7364C47.3586 21.1572 48.2925 20.3025 49.2233 19.4757C49.3562 19.6507 49.2233 19.8651 49.4155 20.029C48.1271 21.3322 47.8845 23.0934 46.7294 24.3605C46.6884 24.4451 46.8362 24.5047 46.9156 24.5749C46.3778 24.8965 45.8725 25.4329 45.2522 25.2608C44.9566 25.5122 44.6729 25.8535 44.2919 25.5993C44.4397 25.4584 44.7588 25.4272 44.7408 25.2411C44.156 25.3935 43.3286 25.2859 42.584 25.0801C42.1794 24.9672 42.2354 24.6513 41.9488 24.3014C41.5352 23.799 40.9325 23.5419 41.2751 22.9977C40.897 22.8593 41.0833 22.6392 40.7847 22.4896C40.9889 22.281 41.0359 22.0974 41.0478 21.9167C40.7052 21.0644 41.2281 20.0799 41.2042 19.1792C41.9103 17.8135 42.7408 16.2219 43.314 15.0312C43.8044 14.7347 43.716 14.4016 44.1915 13.8824C44.3008 13.7358 44.1381 13.6311 44.1265 13.5041C45.0305 12.4515 45.5978 11.2833 46.5077 10.383C46.9276 9.35579 48.3074 9.04241 49.0845 8.15359C49.489 8.25504 49.8316 7.97328 50.2161 7.93344C50.4344 8.02955 50.2221 8.11129 50.1482 8.13922C50.331 8.15072 50.4049 8.43864 50.7919 8.67029C51.903 8.85635 51.8501 9.97928 51.7317 10.6623Z" fill="white"/>
<path d="M44.4412 21.2861C44.619 21.415 44.2971 21.7543 44.153 21.7807C44.0519 21.6462 44.3738 21.4469 44.4412 21.2861Z" fill="white"/>
<path d="M42.2041 15.1111C42.3234 15.3252 41.8973 15.6123 41.7164 15.8667C41.6059 15.6427 41.9953 15.2446 42.2041 15.1111Z" fill="white"/>
<path fill-rule="evenodd" clip-rule="evenodd" d="M12.5842 20.677C12.8075 20.3853 13.0245 20.1019 13.1999 19.8409C13.1426 19.9579 13.1185 20.0694 13.0943 20.1807C13.0629 20.3257 13.0316 20.4704 12.9272 20.6259C13.1402 20.5038 13.33 20.2338 13.5192 19.9645C13.6295 19.8076 13.7396 19.651 13.854 19.5239C13.7828 18.8959 14.3472 18.1722 14.9118 17.4483L14.9633 17.3822C15.0178 17.2657 15.0731 17.1491 15.1283 17.0324L15.1284 17.0324L15.1284 17.0323L15.1284 17.0323C15.5319 16.181 15.9353 15.3298 16.0077 14.5286C15.69 14.9513 15.3967 15.5414 15.0935 16.1515C14.5622 17.2203 14.0005 18.3506 13.2232 18.7503C13.3168 18.5539 13.4732 18.3004 13.6471 18.0184C13.8603 17.6727 14.1 17.2842 14.2825 16.9057C14.3069 16.8548 14.2743 16.8214 14.2414 16.7876C14.2109 16.7563 14.1802 16.7247 14.1942 16.6788C14.2099 16.6235 14.3137 16.4763 14.4074 16.3432C14.5087 16.1995 14.5983 16.0723 14.5527 16.0954C14.4116 16.1622 14.369 16.2742 14.3298 16.3773C14.2786 16.5122 14.2332 16.6317 13.9804 16.6144C14.1139 16.413 14.2817 16.2069 14.4494 16.0009C14.728 15.6587 15.0065 15.3167 15.1275 14.9966C15.1919 14.896 15.1173 14.9171 15.0421 14.9384C14.9662 14.9599 14.8897 14.9815 14.9544 14.8787C15.4052 14.4789 15.4197 14.1436 15.4341 13.8086C15.4434 13.5942 15.4526 13.38 15.5763 13.1491C15.6322 13.0916 15.705 13.1477 15.778 13.2038C15.8008 13.2214 15.8237 13.239 15.8461 13.2531C16.1382 12.8911 16.4569 12.6937 16.7756 12.4962C17.1581 12.2593 17.5405 12.0224 17.8768 11.5011C18.3381 11.3211 18.7717 10.9728 19.2052 10.6245C20.0483 9.94699 20.8911 9.26982 21.9372 9.83274C22.1739 10.2513 22.1962 10.7052 22.2185 11.1576C22.2206 11.1991 22.2226 11.2406 22.2248 11.282C21.6232 12.0886 20.9373 12.8672 20.2583 13.6379C18.7755 15.3212 17.3257 16.967 16.8587 18.7842C16.8021 18.8652 16.7361 18.8877 16.6703 18.9101C16.5929 18.9365 16.5156 18.9628 16.454 19.0841C16.0137 20.7883 15.8991 22.4424 16.8498 23.9366C16.9539 24.0094 17.0589 24.0824 17.1638 24.1554C17.2686 24.2283 17.3735 24.3012 17.4776 24.374C17.436 24.4265 17.3943 24.4807 17.3526 24.5351L17.3104 24.5898C17.7385 24.9281 17.9732 24.9809 18.1978 25.0314C18.4088 25.0789 18.611 25.1243 18.9563 25.4026C19.2232 25.2655 19.9452 25.3916 19.9774 25.7788C21.9461 25.4169 23.7889 23.4996 25.1238 21.6574C25.056 21.7051 24.8159 21.526 24.9126 21.4726L24.9698 21.3978L24.9701 21.3973C25.1033 21.2233 25.2364 21.0493 25.3673 20.8752C25.4581 20.8304 25.5459 20.783 25.6341 20.7296C25.4881 20.6673 25.5822 20.5683 25.6757 20.47C25.7212 20.4222 25.7665 20.3745 25.7839 20.3314C25.8429 20.4411 25.7869 20.5725 25.6723 20.7067C26.3144 20.3069 26.9164 19.6641 27.5185 19.0211C28.0087 18.4976 28.4991 17.974 29.0112 17.5813C28.8067 17.912 28.6133 18.241 28.4199 18.57L28.4198 18.5702L28.4197 18.5703L28.4196 18.5704L28.4196 18.5705L28.4195 18.5706L28.4195 18.5706C27.9915 19.2986 27.5636 20.0265 27.0162 20.7716C27.1099 21.2706 27.0777 21.7892 26.9661 22.3188C27.2794 22.5318 27.435 22.7682 27.5904 23.0043C27.7524 23.2504 27.9142 23.4962 28.254 23.715C28.4007 23.7612 28.5503 23.8258 28.6998 23.8902L28.6998 23.8902C29.1667 24.0916 29.6326 24.2925 30.006 23.9337C30.2695 22.9887 30.7833 22.0508 31.2378 21.2212C31.4155 20.8968 31.5842 20.5889 31.7253 20.3036C31.568 20.1693 31.4573 20.3194 31.3463 20.47C31.2648 20.5806 31.1831 20.6915 31.0826 20.6904C31.1467 20.5832 31.2046 20.4783 31.2604 20.3773L31.2604 20.3772C31.4905 19.9602 31.6849 19.608 32.1359 19.4231C32.1475 19.3518 32.1194 19.2863 32.0912 19.2206C32.0484 19.1208 32.0053 19.0206 32.1007 18.8988C32.4735 18.4123 32.7051 17.8766 32.9364 17.3417C33.1475 16.8534 33.3584 16.3656 33.6762 15.9162C33.9898 15.4726 34.4114 15.1136 34.8316 14.7557C35.3039 14.3535 35.7744 13.9528 36.0882 13.4351C36.4359 13.2613 36.7595 12.9411 37.083 12.6209C37.6413 12.0684 38.1995 11.5161 38.8811 11.7165C38.7815 11.954 38.6818 12.2032 38.5804 12.457L38.5803 12.4571C38.2516 13.2793 37.904 14.1489 37.4758 14.817C37.5229 15.1647 37.3909 15.4874 37.2382 15.8151C36.9299 16.4634 36.7337 17.1251 36.5375 17.7864L36.5375 17.7866L36.5374 17.7868L36.5373 17.7869L36.5373 17.7871L36.5372 17.7873C36.446 18.0949 36.3548 18.4023 36.2524 18.7083C36.0673 19.2556 35.783 19.7339 35.5031 20.2047C35.2195 20.6816 34.9405 21.151 34.7736 21.677C34.8439 21.9008 34.8623 22.1325 34.8807 22.3642C34.9252 22.9251 34.9698 23.4862 35.7505 23.9366L35.8033 23.9211L35.8394 23.9104C36.1962 23.8045 36.5504 23.6993 36.9625 23.948C38.1431 23.2097 38.7533 21.8764 39.325 20.6274L39.3359 20.6035C39.1668 20.643 39.0164 20.7934 38.866 20.9438C38.6852 21.1246 38.5046 21.3053 38.2915 21.2931C38.3567 21.1721 38.4255 21.068 38.4873 20.9744L38.4874 20.9744C38.6735 20.6928 38.7969 20.5061 38.5702 20.2387C38.5192 20.3512 38.4144 20.4939 38.2955 20.6557L38.2954 20.6559L38.2953 20.6559C38.0789 20.9505 37.8159 21.3085 37.7456 21.6631C37.6811 21.6297 37.6292 21.6709 37.5773 21.7121C37.5252 21.7534 37.4731 21.7947 37.4083 21.761C37.4068 21.446 37.5336 21.2608 37.664 21.0704C37.7899 20.8864 37.9192 20.6975 37.9394 20.382C38.0496 20.4029 38.145 20.3371 38.2404 20.2713C38.3102 20.2231 38.38 20.175 38.4557 20.1608C38.6382 19.8517 38.8432 19.5392 39.0481 19.2268L39.0482 19.2267L39.0482 19.2267L39.0482 19.2267L39.0482 19.2266L39.0483 19.2266L39.0483 19.2266C39.5683 18.4339 40.088 17.6417 40.2399 16.9057C39.8536 17.3753 39.5349 17.8863 39.2209 18.39L39.2209 18.39L39.2209 18.3901C38.7026 19.2214 38.1968 20.0326 37.4202 20.6035C37.5028 19.9111 38.0378 19.344 38.6145 18.7327C39.021 18.3019 39.4482 17.8491 39.7525 17.3149C39.9808 16.7822 40.3475 16.2364 40.7028 15.7077L40.7028 15.7076L40.7028 15.7076C41.0466 15.196 41.3796 14.7004 41.5659 14.2483C42.9098 13.1687 43.3556 11.4195 41.5541 10.4941C41.6511 10.4029 41.6297 10.3294 41.6081 10.2554C41.5892 10.1908 41.5702 10.1259 41.6304 10.0486C39.8907 8.0693 37.8546 8.99713 36.2464 9.79887C36.3168 9.69279 36.3461 9.5916 36.2994 9.50184L36.1619 9.58234C35.7621 9.81667 35.3639 10.05 34.9585 10.2334C34.9618 10.1649 34.9427 10.0994 34.9235 10.0337C34.8931 9.93011 34.8627 9.82616 34.9204 9.70952C34.2514 9.2048 33.5795 8.70009 33.0221 8.88778C33.1231 9.68548 32.6735 10.5663 32.2239 11.4468L32.2239 11.4468C31.9545 11.9746 31.6851 12.5023 31.5344 13.012C31.1948 13.4415 31.006 13.9282 30.8167 14.4158C30.6578 14.8255 30.4985 15.2359 30.2495 15.6135C30.1089 15.8246 29.8846 16.0037 29.6335 16.2042C29.4648 16.3389 29.284 16.4833 29.1084 16.6535C28.831 16.9209 28.5825 17.1661 28.3482 17.3974L28.3479 17.3978L28.3479 17.3978C27.7619 17.9762 27.2644 18.4673 26.623 19C26.3142 19.2564 25.9789 19.4569 25.6408 19.6591C25.2175 19.9122 24.7899 20.1679 24.4048 20.539C23.9114 20.7769 23.4224 21.0426 22.9332 21.3084C21.5722 22.0478 20.2102 22.7879 18.751 22.9304C18.7427 22.561 18.7525 22.1884 18.7624 21.8161V21.816V21.8159V21.8158V21.8158V21.8157V21.8156C18.7731 21.4136 18.7837 21.012 18.7714 20.6149C20.6816 19.8524 22.5387 18.7895 24.2992 17.1358C24.2288 17.2423 24.1965 17.3431 24.2466 17.43C24.4485 17.0605 24.8175 16.7675 25.2177 16.4499L25.2177 16.4499C25.5523 16.1843 25.9086 15.9014 26.2074 15.542C26.0596 15.7265 25.9512 15.9049 25.9862 16.0619C26.2538 16.1071 26.4637 15.8061 26.6736 15.5052L26.6736 15.5052C26.7628 15.3772 26.8521 15.2493 26.9458 15.1479C26.8783 15.0359 26.7679 15.116 26.6879 15.174C26.6217 15.222 26.5764 15.2549 26.5937 15.1508C27.2801 14.6657 27.8171 13.7436 28.128 13.1409C27.9444 13.0837 27.9875 12.9922 28.0307 12.9004C28.0531 12.8529 28.0755 12.8053 28.0665 12.7623C28.711 11.9414 29.0277 11.312 29.3729 10.6261C29.4474 10.4781 29.5232 10.3275 29.6038 10.1718C29.4838 9.53285 28.6765 8.99468 27.8612 8.45895C26.639 8.49902 25.5312 9.2359 24.4231 9.97302C23.8951 10.3242 23.367 10.6755 22.8263 10.9515C23.1268 10.4349 22.7819 10.0184 22.4349 9.59945L22.4349 9.59941C22.3787 9.5316 22.3225 9.46372 22.2689 9.39535C22.0081 9.33659 21.7408 9.24397 21.4443 8.99182C20.0313 8.65303 18.7001 8.82287 17.3698 8.99259C17.1701 9.01807 16.9704 9.04355 16.7704 9.0673C16.0606 9.39226 15.3479 9.69899 14.6351 10.0057C11.9595 11.1571 9.28388 12.3084 6.76561 14.4245C7.04008 14.6766 7.08182 14.9631 7.12358 15.2497C7.17333 15.5911 7.22309 15.9326 7.66662 16.2161C7.9275 16.1684 8.19729 16.1766 8.5146 16.474C9.14842 16.2907 9.75636 15.9462 10.3644 15.6016C11.217 15.1185 12.0698 14.6352 12.9946 14.5959C11.9939 16.9926 9.33585 19.967 7.43458 21.5481C7.09642 21.8308 6.80238 22.0292 6.56122 22.1919L6.56118 22.1919C6.45084 22.2664 6.35156 22.3334 6.2642 22.3976C5.87849 22.682 5.51967 22.9897 5.17732 23.2833C4.23047 24.0953 3.40954 24.7994 2.49389 24.6037C2.50237 23.7991 2.37044 23.0141 2.20628 22.238C2.46441 22.0222 2.46441 21.8455 2.46441 21.6688C2.46441 21.4922 2.46441 21.3155 2.72253 21.0997C2.6329 21.003 2.56674 21.0555 2.50044 21.1081C2.4475 21.15 2.39446 21.1921 2.3293 21.1584C2.43789 19.956 2.8604 18.6328 3.35629 17.2953C3.46006 17.0191 3.54388 16.7321 3.6266 16.4488C3.75456 16.0105 3.87989 15.5813 4.07235 15.2153C4.19082 14.9889 4.31796 14.7868 4.43862 14.5951C4.74524 14.1078 5.01007 13.6869 4.98481 13.1013C7.48421 9.60303 10.1987 7.41076 12.9416 5.40619C13.3185 5.33713 13.6713 5.12054 14.0236 4.90427C14.1293 4.83942 14.2348 4.77459 14.341 4.71379C14.448 4.70287 14.5556 4.69667 14.6633 4.69047C15.0545 4.66792 15.4451 4.6454 15.7994 4.39676C15.4299 3.82513 14.7754 3.19434 14.0301 2.83243C13.5081 2.58017 13.0121 2.63789 12.5794 2.68824C12.4453 2.70385 12.3172 2.71876 12.1963 2.72349C10.4079 3.53503 8.68675 5.22236 7.14055 6.73815C7.0154 6.86084 6.89139 6.98241 6.76858 7.10231C2.84301 10.9429 0.886159 16.0031 0 19.8715C0.0811455 20.262 0.0704432 20.5994 0.0591671 20.9549C0.0505188 21.2276 0.041533 21.5109 0.0733871 21.8369C0.120049 22.3135 0.254946 22.7256 0.37245 23.0422C0.488752 23.3582 0.568578 23.7501 0.647033 24.1353C0.746855 24.6253 0.844457 25.1044 1.01215 25.4026C1.43168 26.1456 2.0332 26.454 2.77853 26.6307C2.76539 26.6719 2.74513 26.7142 2.72485 26.7566C2.65413 26.9043 2.5832 27.0525 2.81331 27.1546C3.34131 27.2702 3.82973 27.1432 4.31846 27.0162C4.78034 26.8961 5.2425 26.776 5.73861 26.8604C5.87807 26.7876 6.01777 26.7162 6.1575 26.6448C7.28779 26.067 8.41965 25.4885 9.43257 24.1863C9.81126 24.0493 10.1518 23.6791 10.4921 23.309C10.7926 22.9822 11.0929 22.6557 11.4191 22.4902C11.6215 21.9344 12.1169 21.2874 12.5842 20.677ZM4.074 12.9964C4.01664 12.9936 3.95945 12.9909 3.91112 13.034C4.2558 12.6555 4.60498 12.1895 4.96572 11.7081C5.532 10.9525 6.12679 10.1588 6.77746 9.60545C6.47832 10.0349 6.11351 10.4899 5.72411 10.9756L5.7241 10.9756C5.23108 11.5905 4.69865 12.2546 4.21019 12.9781C4.16784 13.0008 4.12086 12.9986 4.074 12.9964ZM13.1999 19.8381C13.2445 19.777 13.2807 19.7186 13.3168 19.6602L13.3229 19.6504C13.2703 19.7148 13.2292 19.7793 13.1999 19.8381ZM25.1718 11.7475C25.7265 11.4077 26.2758 11.0711 26.7459 11.1812C24.5341 14.1218 21.8582 16.2104 19.2498 17.7017C20.7137 15.4254 22.1484 13.9508 24.0586 12.3053C24.4168 12.2101 24.7955 11.9781 25.1718 11.7475ZM11.8212 20.9369C11.9626 20.6103 12.1239 20.4294 12.2825 20.2515C12.4205 20.0969 12.5563 19.9445 12.6751 19.7006C12.2442 19.8267 11.8242 20.5754 11.8212 20.9369ZM11.4894 20.4574C11.6183 20.581 11.3278 21.3236 11.0317 21.0547C11.1586 20.9579 11.2081 20.8728 11.2684 20.7691C11.3181 20.6836 11.3753 20.5854 11.4894 20.4574ZM7.65504 25.0301C8.01548 24.5863 8.39629 24.1648 8.77525 23.7453C9.77532 22.6383 10.7625 21.5455 11.3282 20.096C10.9754 20.551 10.5731 21.019 10.1632 21.496C9.1788 22.6414 8.15009 23.8384 7.65504 25.0301ZM3.74921 14.0665C3.63968 14.2088 3.53028 14.351 3.49997 14.4807C3.40318 14.239 3.63542 13.9451 3.86588 13.6535C3.90811 13.6001 3.95028 13.5467 3.99035 13.4938C4.06082 13.6616 3.90488 13.8643 3.74921 14.0665Z" fill="white"/>
<path d="M31.8339 19.833C32.0916 19.9326 31.7111 20.2071 31.6313 20.2161C31.5612 20.1369 31.6499 19.7861 31.8339 19.833Z" fill="white"/>
<path d="M28.5575 12.1889C28.6891 12.0483 28.8401 12.0454 29.0196 12.2479C28.5502 12.5017 28.7851 13.2339 28.2529 13.6C28.1261 13.172 28.73 12.6087 28.5575 12.1889Z" fill="white"/>
<path d="M25.9876 20.1923C26.0492 20.3068 25.9907 20.4439 25.871 20.5839C25.8586 20.5929 25.8435 20.5988 25.8311 20.6078C25.6045 20.5112 25.9322 20.3298 25.9876 20.1923Z" fill="white"/>
<path d="M25.9022 20.7631C25.896 20.7716 25.8867 20.7835 25.8778 20.7925C25.8716 20.7895 25.8685 20.7895 25.8623 20.7865C25.8747 20.778 25.8898 20.7716 25.9022 20.7631Z" fill="white"/>
<path d="M13.269 20.1203C13.2996 20.059 13.3427 19.9917 13.3981 19.9245C13.3582 19.9887 13.3183 20.053 13.269 20.1203Z" fill="white"/>
<path fill-rule="evenodd" clip-rule="evenodd" d="M118.04 30.5947C115.288 30.3517 112.836 30.2299 110.373 30.3591C109.327 30.4139 108.272 30.4108 107.221 30.4077L107.201 30.4077C104.403 30.3992 101.604 30.3822 98.8058 30.3568C97.9937 30.3492 97.1823 30.3266 96.3707 30.304C95.0641 30.2676 93.757 30.2312 92.4456 30.2576C90.2519 30.3023 88.0544 30.2776 85.8567 30.2529C84.7882 30.2409 83.7196 30.2289 82.6513 30.2249C81.2519 30.2195 79.8515 30.2191 78.4538 30.2511C77.1202 30.282 75.7876 30.3286 74.4548 30.3753L74.4546 30.3753C73.8416 30.3967 73.2284 30.4182 72.6152 30.4381C70.5415 30.506 68.4675 30.5735 66.3934 30.6398C65.8442 30.6573 65.2951 30.6781 64.746 30.6989C63.4747 30.7471 62.2033 30.7952 60.9309 30.8033C59.2638 30.814 57.5959 30.8025 55.928 30.791C54.7158 30.7826 53.5036 30.7742 52.2917 30.7744C50.5927 30.7746 48.894 30.7834 47.1953 30.7922C45.7143 30.7998 44.2333 30.8075 42.7521 30.8095C39.4025 30.8141 36.0524 30.8071 32.7024 30.796C32.3295 30.7946 31.9562 30.7791 31.5828 30.7636C31.1925 30.7474 30.8022 30.7312 30.4123 30.7312C29.766 30.7313 29.1208 30.7563 28.4755 30.7813C27.4292 30.8219 26.3827 30.8625 25.3306 30.7971C25.0662 30.7807 24.7996 30.7889 24.5332 30.797C24.4173 30.8005 24.3015 30.8041 24.1858 30.8056C23.612 30.813 23.0383 30.8209 22.4646 30.8287C21.0893 30.8476 19.7143 30.8665 18.3387 30.8785C18.089 30.8806 17.8386 30.8674 17.5882 30.8543C17.3301 30.8407 17.0719 30.8271 16.8145 30.8303C15.5252 30.8451 14.236 30.8661 12.9467 30.887C12.1606 30.8998 11.3745 30.9126 10.5884 30.924C10.1915 30.9298 9.79459 30.9318 9.39765 30.9337H9.39764C9.03288 30.9355 8.66812 30.9373 8.30347 30.9421L8.25567 30.9427C7.93273 30.9467 7.60717 30.9507 7.28857 30.9837C5.53475 31.1638 3.77155 31.2645 1.96109 31.2521C1.97443 31.3626 1.98646 31.4714 1.99837 31.5792L1.99837 31.5792C2.02564 31.8259 2.05225 32.0666 2.09226 32.306C2.15061 32.6573 2.23025 33.0082 2.64592 33.3502C2.79114 33.3761 2.94449 33.4109 3.10338 33.4471L3.10338 33.4471C3.47759 33.5322 3.88253 33.6242 4.28433 33.6221C4.99141 33.6182 5.697 33.5452 6.40167 33.4722L6.40174 33.4722C6.6185 33.4497 6.83517 33.4273 7.05177 33.4069C7.47319 33.3673 7.89352 33.3217 8.31392 33.2761L8.31393 33.2761L8.31396 33.2761C8.7284 33.2312 9.14291 33.1862 9.55857 33.147C9.68732 33.1348 9.81971 33.1367 9.95181 33.1386H9.95181C10.1195 33.141 10.2866 33.1435 10.4453 33.1169C11.8694 32.8788 13.3194 32.8236 14.7694 32.7685C15.5171 32.74 16.2647 32.7116 17.0087 32.6581C17.1847 32.6453 17.3636 32.6524 17.5425 32.6595C17.6182 32.6624 17.6939 32.6654 17.7693 32.6669C17.9868 32.671 18.2045 32.6781 18.4221 32.6851C18.8809 32.7 19.3396 32.7148 19.7966 32.702C20.3323 32.6871 20.8678 32.6669 21.4033 32.6466C23.3205 32.5741 25.2376 32.5016 27.1611 32.6746C27.3675 32.6932 27.5736 32.7151 27.7795 32.737C28.5385 32.8176 29.2961 32.8981 30.0665 32.8135C30.2014 32.7987 30.3459 32.8202 30.487 32.8411C30.5157 32.8454 30.5442 32.8496 30.5725 32.8536C32.3404 33.0965 34.1163 33.135 35.9 33.0687C36.5337 33.0452 37.1781 33.0228 37.8071 33.0795C38.8908 33.1774 39.9572 33.1001 41.0226 33.023C41.1748 33.012 41.3269 33.001 41.4791 32.9904C42.7483 32.918 44.2691 32.7929 45.8812 32.6603C46.5077 32.6088 47.1479 32.5561 47.7926 32.505L47.8124 32.5035C48.1403 32.4792 48.4926 32.4531 48.8011 32.5192C49.4045 32.6478 50.0072 32.6456 50.6129 32.6434C50.7664 32.6428 50.9201 32.6422 51.0741 32.6438C52.0046 32.6534 52.9382 32.6781 53.8658 32.7452C54.3566 32.7807 54.8455 32.8369 55.3343 32.893C55.8532 32.9526 56.3721 33.0122 56.8934 33.0471C60.111 33.2623 63.3316 33.4208 66.5552 33.2754C67.1313 33.2495 67.7064 33.2127 68.2816 33.1759C68.76 33.1453 69.2384 33.1147 69.7175 33.0903C70.0842 33.0716 70.4514 33.0469 70.8188 33.0221C71.7618 32.9586 72.7057 32.8951 73.6442 32.9334C75.2077 32.9971 76.7526 32.9057 78.297 32.8144C79.0705 32.7686 79.8439 32.7229 80.6194 32.6966C81.537 32.6657 82.4529 32.6142 83.3687 32.5628L83.3688 32.5628C83.9709 32.529 84.573 32.4952 85.1756 32.4672C85.9649 32.4303 86.7546 32.3993 87.5443 32.3683L87.5444 32.3683L87.5445 32.3682C88.1925 32.3428 88.8405 32.3173 89.4882 32.2886C90.2484 32.2551 91.0073 32.21 91.7659 32.1641C92.2949 32.1318 92.8238 32.0978 93.3528 32.0639C93.9607 32.0248 94.5687 31.9858 95.1768 31.9493C95.8923 31.9065 96.6087 31.8679 97.3254 31.8386C97.8023 31.819 98.2798 31.8041 98.7572 31.7891C99.7168 31.759 100.676 31.729 101.63 31.6613C102.435 31.6042 103.227 31.5687 104.037 31.6077L104.167 31.614C104.886 31.649 105.617 31.6846 106.32 31.6123C107.666 31.4739 109.015 31.4341 110.37 31.4226L110.523 31.4214C110.896 31.4187 111.269 31.416 111.64 31.3936C112.292 31.3542 112.891 31.2567 113.493 31.1589C114.02 31.0732 114.549 30.9873 115.117 30.9394C115.402 30.9154 115.661 30.9057 115.914 30.8962C116.312 30.8812 116.7 30.8667 117.163 30.7979C117.186 30.7945 117.216 30.7911 117.25 30.7871C117.427 30.7669 117.739 30.731 118.04 30.5947ZM72.6161 32.0508L72.1936 32.2517L71.4888 32.2903C71.4888 32.2903 70.4453 32.1487 71.3759 32.0072H71.996L72.6161 32.0508ZM76.483 32.3932L77.27 32.1923L76.1154 32.1488H74.9613C73.2296 32.2903 75.1712 32.4318 75.1712 32.4318L76.483 32.3932Z" fill="white"/>
<path d="M48.1956 33.0881H49.3917L50.5879 33.1366L49.7722 33.3584L48.4128 33.4009C48.4128 33.4009 46.4009 33.2447 48.1956 33.0881Z" fill="white"/>
<path d="M20.8747 32.8321L23.5715 32.4465L26.2749 32.1111L24.4682 32.6058L21.41 33.0884C21.41 33.0884 16.8526 33.5741 20.8747 32.8321Z" fill="white"/>
<path d="M55.0059 32.7614L57.6982 32.6925L60.3921 32.6721L58.5622 32.9406L55.5038 33.0615C55.5038 33.0615 50.9713 33.0207 55.0059 32.7614Z" fill="white"/>
<path d="M31.9517 33.1386L29.7046 33.2435L27.451 33.2446L28.9552 32.6992L31.5039 32.489C31.5039 32.489 35.3032 32.6473 31.9517 33.1386Z" fill="white"/>
<path d="M15.6411 32.9878H19.9775L24.314 33.0674L21.3576 33.4309L16.4295 33.5012C16.4295 33.5012 9.1367 33.2445 15.6411 32.9878Z" fill="white"/>
<path d="M45.4704 32.7106H46.0684L46.6667 32.7591L46.2589 32.9804L45.5792 33.023C45.5792 33.023 44.5734 32.8668 45.4704 32.7106Z" fill="white"/>
<path d="M23.1172 32.7106H23.7153L24.3134 32.7591L23.9055 32.9804L23.2257 33.023C23.2257 33.023 22.2201 32.8668 23.1172 32.7106Z" fill="white"/>
<path d="M10.1764 33.466H10.7745L11.3726 33.5145L10.9647 33.7358L10.2849 33.7784C10.2849 33.7784 9.27928 33.6222 10.1764 33.466Z" fill="white"/>
</svg>
